<svg width="139.000000" height="50.000000" viewBox="0 0 139 50" fill="none" xmlns="http://www.w3.org/2000/svg" xmlns:xlink="http://www.w3.org/1999/xlink">
	<desc>
			Created with Pixso.
	</desc>
	<defs/>
	<path id="Vector" d="M41.85 49.76L0 49.76L0 7.87L41.85 7.87L41.85 49.76ZM0.66 49.09L41.18 49.09L41.18 8.54L0.66 8.54L0.66 49.09Z" fill="#191919" fill-opacity="1.000000" fill-rule="nonzero"/>
	<path id="Vector" d="M45.63 45.53L3.78 45.53L3.78 3.64L45.63 3.64L45.63 45.53ZM4.45 44.86L44.96 44.86L44.96 4.31L4.45 4.31L4.45 44.86Z" fill="#191919" fill-opacity="1.000000" fill-rule="nonzero"/>
	<path id="Vector" d="M49.64 41.65L7.79 41.65L7.79 -0.24L49.64 -0.24L49.64 41.65ZM8.46 40.98L48.97 40.98L48.97 0.43L8.46 0.43L8.46 40.98Z" fill="#191919" fill-opacity="1.000000" fill-rule="nonzero"/>
	<path id="Vector" d="M13.42 27.04L22.67 27.04L22.67 36.3L13.42 36.3L13.42 27.04Z" fill="#191919" fill-opacity="1.000000" fill-rule="nonzero"/>
	<path id="Fylla" d="M77.95 16.97L77.95 19.04L67.94 19.04L67.94 23.88L76.13 23.88L76.13 25.9L67.94 25.9L67.94 32.55L65.64 32.55L65.64 16.97L77.95 16.97ZM93.31 16.97L87.38 27.34L87.38 32.55L85.08 32.55L85.08 27.34L79.15 16.97L81.79 16.97L86.28 25.06L90.67 16.97L93.31 16.97ZM98.06 30.48L98.06 16.97L95.75 16.97L95.75 32.55L107.23 32.55L107.23 30.48L98.06 30.48ZM112.61 16.97L112.61 30.48L121.78 30.48L121.78 32.55L110.31 32.55L110.31 16.97L112.61 16.97ZM129.78 16.97L123.42 32.55L125.9 32.55L127.42 28.68L134.61 28.68L136.14 32.55L138.64 32.55L132.23 16.97L129.78 16.97ZM133.8 26.62L131.01 19.58L128.23 26.62L133.8 26.62Z" fill="#191919" fill-opacity="1.000000" fill-rule="evenodd"/>
</svg>
