<svg width="34.000000" height="34.000000" viewBox="0 0 34 34" fill="none" xmlns="http://www.w3.org/2000/svg" xmlns:xlink="http://www.w3.org/1999/xlink">
	<desc>
			Created with Pixso.
	</desc>
	<defs/>
	<path id="LN" d="M14.74 16.8L14.74 17.79L10.89 17.79L10.89 21.87L9.71 21.87L9.71 12.63L15.38 12.63L15.38 13.64L10.89 13.64L10.89 16.8L14.74 16.8ZM21.35 21.87L18.39 21.87L18.39 12.63L21.14 12.63Q21.54 12.64 21.93 12.71Q22.09 12.74 22.25 12.78Q22.8 12.92 23.23 13.22Q23.4 13.35 23.55 13.5Q23.76 13.72 23.9 13.98Q24.16 14.45 24.15 15.1Q24.15 15.46 24.03 15.76Q23.93 16.05 23.74 16.28Q23.74 16.28 23.73 16.29Q23.54 16.53 23.3 16.7Q23.06 16.86 22.72 17.01L22.72 17.03Q23.07 17.11 23.4 17.32Q23.72 17.54 23.93 17.8Q23.96 17.84 23.99 17.88Q24.17 18.13 24.28 18.44Q24.4 18.8 24.4 19.21Q24.41 19.86 24.15 20.35Q23.98 20.69 23.73 20.94Q23.61 21.07 23.47 21.18Q23.05 21.51 22.49 21.69Q22.29 21.76 22.09 21.8Q21.72 21.87 21.35 21.87ZM19.57 13.64L19.57 16.57L21.21 16.57Q21.34 16.57 21.48 16.55Q21.67 16.53 21.85 16.47Q22.17 16.37 22.41 16.19Q22.41 16.18 22.42 16.18Q22.52 16.1 22.61 16.01Q22.73 15.88 22.82 15.72Q22.97 15.45 22.97 15.09Q22.97 14.7 22.82 14.43Q22.73 14.26 22.61 14.13Q22.52 14.05 22.43 13.98Q22.17 13.81 21.84 13.72Q21.79 13.71 21.73 13.7Q21.46 13.64 21.17 13.64L19.57 13.64ZM21.44 17.55L19.57 17.55L19.57 20.88L21.38 20.88Q21.73 20.87 22.05 20.76Q22.06 20.76 22.08 20.75Q22.41 20.64 22.66 20.43Q22.74 20.36 22.82 20.28Q22.96 20.12 23.06 19.91Q23.21 19.61 23.21 19.22Q23.22 18.83 23.08 18.52Q22.99 18.32 22.85 18.15Q22.78 18.07 22.7 18L22.7 18Q22.46 17.79 22.14 17.68Q21.82 17.56 21.44 17.55Z" fill="#191919" fill-opacity="1.000000" fill-rule="evenodd"/>
	<rect id="Badge" rx="16.500000" width="33.000000" height="33.000000" transform="translate(0.500000 -0.120117)" stroke="#191919" stroke-opacity="1.000000" stroke-width="1.000000"/>
</svg>
