<svg width="149.000000" height="13.000000" viewBox="0 0 149 13" fill="none" xmlns="http://www.w3.org/2000/svg" xmlns:xlink="http://www.w3.org/1999/xlink">
	<desc>
			Created with Pixso.
	</desc>
	<defs/>
	<path id="Branding, Design" d="M72.66 4.56L72.68 8.48Q72.43 8.77 72.15 9.01Q71.87 9.25 71.57 9.42Q71.46 9.49 71.34 9.55Q70.93 9.76 70.47 9.88Q69.87 10.03 69.22 10.02Q68.56 10.01 68.01 9.82Q67.49 9.64 67.06 9.32Q67.04 9.3 67.02 9.28Q66.92 9.2 66.82 9.12Q66.5 8.84 66.25 8.48Q65.92 8.02 65.7 7.48Q65.47 6.95 65.36 6.36Q65.3 6.07 65.27 5.78Q65.24 5.47 65.24 5.17L65.24 3.93Q65.24 3.82 65.24 3.72Q65.26 3.23 65.34 2.74Q65.44 2.16 65.65 1.61Q65.85 1.07 66.16 0.61Q66.34 0.33 66.57 0.1Q66.73 -0.06 66.9 -0.2Q67.33 -0.54 67.87 -0.74Q68.41 -0.94 69.08 -0.94Q69.83 -0.94 70.46 -0.7Q71.02 -0.5 71.45 -0.14Q71.51 -0.1 71.56 -0.05Q71.64 0.03 71.72 0.11Q72.08 0.49 72.31 0.99Q72.6 1.59 72.66 2.34L71.32 2.34Q71.24 1.88 71.08 1.48Q70.91 1.09 70.64 0.81Q70.58 0.76 70.52 0.71Q70.28 0.5 69.98 0.38Q69.6 0.22 69.09 0.22Q68.61 0.22 68.23 0.39Q67.95 0.51 67.72 0.71Q67.65 0.76 67.58 0.83Q67.57 0.85 67.55 0.86Q67.29 1.13 67.12 1.48Q66.94 1.85 66.82 2.26Q66.78 2.41 66.74 2.57Q66.68 2.83 66.65 3.09Q66.6 3.52 66.6 3.91L66.6 5.17Q66.61 5.57 66.67 6Q66.71 6.29 66.79 6.57Q66.82 6.7 66.86 6.84Q67 7.25 67.2 7.61Q67.39 7.95 67.65 8.21Q67.67 8.23 67.7 8.26Q67.76 8.31 67.82 8.36Q68.06 8.57 68.37 8.7Q68.75 8.86 69.23 8.87Q69.51 8.88 69.81 8.85Q70.12 8.82 70.4 8.73Q70.67 8.65 70.91 8.51Q70.93 8.5 70.94 8.49Q71.04 8.43 71.13 8.35Q71.26 8.24 71.35 8.1L71.37 5.71L69.2 5.71L69.2 4.56L72.66 4.56ZM118.68 7.94Q118.87 7.62 118.87 7.18Q118.87 6.69 118.65 6.35Q118.6 6.28 118.54 6.21Q118.34 5.96 118.07 5.78Q117.72 5.55 117.3 5.4Q116.88 5.25 116.49 5.12Q115.92 4.94 115.34 4.68Q114.76 4.42 114.28 4.05Q113.94 3.79 113.68 3.45Q113.58 3.31 113.5 3.17Q113.49 3.17 113.49 3.16Q113.19 2.65 113.19 1.97Q113.19 1.36 113.43 0.87Q113.46 0.8 113.5 0.74Q113.66 0.45 113.88 0.2Q114.07 0 114.29 -0.17Q114.31 -0.19 114.34 -0.21Q114.81 -0.56 115.4 -0.74Q115.95 -0.91 116.5 -0.93Q116.58 -0.94 116.66 -0.94Q117.1 -0.94 117.52 -0.84Q117.76 -0.79 118 -0.7Q118.58 -0.49 119.05 -0.13Q119.1 -0.09 119.14 -0.06Q119.32 0.09 119.47 0.27Q119.75 0.57 119.94 0.95Q119.95 0.97 119.96 0.99Q120.24 1.57 120.25 2.28L118.86 2.28Q118.8 1.82 118.63 1.44Q118.48 1.09 118.23 0.84Q118.21 0.81 118.19 0.79Q118.15 0.76 118.12 0.73Q117.86 0.5 117.52 0.37Q117.14 0.22 116.66 0.22Q116.43 0.22 116.22 0.26Q116.06 0.28 115.9 0.33Q115.53 0.44 115.25 0.66L115.24 0.66Q115.09 0.77 114.97 0.91Q114.86 1.05 114.78 1.2Q114.61 1.53 114.61 1.95Q114.61 2.38 114.81 2.69Q114.83 2.71 114.84 2.73Q114.87 2.77 114.9 2.81Q115.11 3.08 115.42 3.27Q115.76 3.49 116.17 3.63Q116.58 3.78 116.93 3.89Q117.53 4.07 118.12 4.33Q118.58 4.53 118.97 4.82Q119.09 4.9 119.21 5Q119.41 5.16 119.59 5.35Q119.82 5.6 119.99 5.91Q120.28 6.45 120.28 7.16Q120.28 7.86 119.98 8.39Q119.97 8.4 119.96 8.42Q119.78 8.72 119.55 8.96Q119.36 9.15 119.14 9.3Q118.63 9.66 118 9.84Q117.36 10.02 116.72 10.02Q116.5 10.02 116.28 10Q115.74 9.95 115.22 9.77Q114.53 9.52 114 9.07Q113.97 9.05 113.95 9.03Q113.65 8.77 113.43 8.45Q113.29 8.26 113.18 8.05Q113.18 8.04 113.17 8.03Q112.9 7.47 112.88 6.8L114.26 6.8Q114.33 7.3 114.53 7.68Q114.69 7.99 114.93 8.21Q114.99 8.27 115.06 8.33Q115.12 8.38 115.17 8.42Q115.45 8.62 115.8 8.74Q116.22 8.87 116.72 8.87Q116.9 8.87 117.07 8.85Q117.29 8.83 117.5 8.77Q117.89 8.67 118.19 8.46Q118.3 8.38 118.4 8.28Q118.56 8.13 118.68 7.94ZM139.17 4.56L139.19 8.48Q138.94 8.77 138.66 9.01Q138.38 9.25 138.08 9.42Q137.97 9.49 137.85 9.55Q137.44 9.76 136.98 9.88Q136.38 10.03 135.73 10.02Q135.07 10.01 134.52 9.82Q134 9.64 133.57 9.32Q133.55 9.3 133.53 9.28Q133.43 9.2 133.33 9.12Q133.01 8.84 132.76 8.48Q132.43 8.02 132.21 7.48Q131.98 6.95 131.87 6.36Q131.81 6.07 131.78 5.78Q131.75 5.47 131.75 5.17L131.75 3.93Q131.75 3.82 131.75 3.72Q131.77 3.23 131.85 2.74Q131.95 2.16 132.16 1.61Q132.36 1.07 132.67 0.61Q132.85 0.33 133.08 0.1Q133.24 -0.06 133.41 -0.2Q133.84 -0.54 134.38 -0.74Q134.92 -0.94 135.59 -0.94Q136.34 -0.94 136.97 -0.7Q137.53 -0.5 137.97 -0.14Q138.02 -0.1 138.07 -0.05Q138.15 0.03 138.23 0.11Q138.59 0.49 138.82 0.99Q139.11 1.59 139.17 2.34L137.83 2.34Q137.75 1.88 137.59 1.48Q137.42 1.09 137.15 0.81Q137.09 0.76 137.03 0.71Q136.79 0.5 136.49 0.38Q136.11 0.22 135.6 0.22Q135.12 0.22 134.74 0.39Q134.46 0.51 134.23 0.71Q134.16 0.76 134.09 0.83Q134.08 0.85 134.06 0.86Q133.8 1.13 133.63 1.48Q133.45 1.85 133.33 2.26Q133.29 2.41 133.25 2.57Q133.19 2.83 133.16 3.09Q133.11 3.52 133.11 3.91L133.11 5.17Q133.12 5.57 133.18 6Q133.22 6.29 133.3 6.57Q133.33 6.7 133.37 6.84Q133.51 7.25 133.71 7.61Q133.9 7.95 134.16 8.21Q134.18 8.23 134.21 8.26Q134.27 8.31 134.33 8.36Q134.57 8.57 134.88 8.7Q135.26 8.86 135.74 8.87Q136.02 8.88 136.32 8.85Q136.63 8.82 136.91 8.73Q137.19 8.65 137.42 8.51Q137.44 8.5 137.45 8.49Q137.55 8.43 137.64 8.35Q137.77 8.24 137.86 8.1L137.88 5.71L135.71 5.71L135.71 4.56L139.17 4.56ZM2.67 9.87L-0.75 9.87L-0.75 -0.79L2.43 -0.79Q2.89 -0.78 3.34 -0.7Q3.53 -0.67 3.72 -0.62Q4.35 -0.45 4.84 -0.11Q5.04 0.04 5.21 0.21Q5.45 0.46 5.62 0.77Q5.91 1.31 5.91 2.05Q5.9 2.47 5.77 2.81Q5.64 3.15 5.43 3.42Q5.43 3.42 5.42 3.43Q5.19 3.71 4.92 3.9Q4.65 4.09 4.26 4.26L4.26 4.28Q4.66 4.37 5.03 4.62Q5.41 4.87 5.65 5.17Q5.68 5.22 5.71 5.26Q5.92 5.56 6.05 5.91Q6.19 6.32 6.19 6.8Q6.2 7.55 5.91 8.12Q5.71 8.5 5.42 8.8Q5.28 8.95 5.12 9.07Q4.63 9.46 3.99 9.66Q3.76 9.74 3.52 9.79Q3.1 9.87 2.67 9.87ZM14.4 9.87L12.3 5.52L10.17 5.52L10.17 9.87L8.82 9.87L8.82 -0.79L11.95 -0.79Q12.7 -0.77 13.36 -0.58Q14.02 -0.38 14.51 0.02Q14.65 0.12 14.76 0.25Q15.08 0.57 15.29 1.01Q15.57 1.61 15.57 2.41Q15.57 2.93 15.42 3.36Q15.28 3.76 15.05 4.09Q15.03 4.12 15 4.15Q14.98 4.17 14.96 4.2Q14.71 4.52 14.37 4.77Q14.01 5.04 13.57 5.23L15.83 9.79L15.82 9.87L14.4 9.87ZM24.21 9.87L23.36 7.11L19.8 7.11L18.95 9.87L17.59 9.87L21.03 -0.79L22.17 -0.79L25.55 9.87L24.21 9.87ZM34.45 -0.79L34.45 9.87L33.08 9.87L28.94 1.91L28.92 9.87L27.55 9.87L27.55 -0.79L28.92 -0.79L33.06 7.16L33.08 -0.79L34.45 -0.79ZM39.6 9.87L37.14 9.87L37.14 -0.79L39.6 -0.79Q40.23 -0.78 40.78 -0.66Q41.33 -0.54 41.8 -0.32Q42.28 -0.1 42.67 0.22Q42.82 0.33 42.96 0.47Q43.18 0.68 43.36 0.93Q43.59 1.24 43.76 1.59Q44.03 2.13 44.17 2.78Q44.31 3.42 44.32 4.15L44.32 4.94Q44.32 5.64 44.19 6.27Q44.05 6.9 43.79 7.43Q43.62 7.79 43.39 8.11Q43.27 8.27 43.13 8.42Q42.81 8.77 42.44 9.04Q42.34 9.12 42.23 9.19Q41.7 9.52 41.04 9.69Q40.37 9.87 39.6 9.87ZM46.78 0.39L46.78 -0.79L53.22 -0.79L53.22 0.39L50.67 0.39L50.67 8.7L53.22 8.7L53.22 9.87L46.78 9.87L46.78 8.7L49.27 8.7L49.27 0.39L46.78 0.39ZM62.96 -0.79L62.96 9.87L61.58 9.87L57.44 1.91L57.42 9.87L56.05 9.87L56.05 -0.79L57.43 -0.79L61.57 7.16L61.59 -0.79L62.96 -0.79ZM96.61 9.87L94.14 9.87L94.14 -0.79L96.61 -0.79Q97.24 -0.78 97.79 -0.66Q98.34 -0.54 98.81 -0.32Q99.28 -0.1 99.68 0.22Q99.83 0.33 99.96 0.47Q100.19 0.68 100.37 0.93Q100.6 1.24 100.77 1.59Q101.04 2.13 101.18 2.78Q101.32 3.42 101.33 4.15L101.33 4.94Q101.33 5.64 101.19 6.27Q101.06 6.9 100.8 7.43Q100.63 7.79 100.4 8.11Q100.27 8.27 100.14 8.42Q99.82 8.77 99.45 9.04Q99.35 9.12 99.24 9.19Q98.71 9.52 98.05 9.69Q97.38 9.87 96.61 9.87ZM109.65 3.8L109.65 4.95L105.2 4.95L105.2 8.72L110.39 8.72L110.39 9.87L103.84 9.87L103.84 -0.79L110.33 -0.79L110.33 0.37L105.2 0.37L105.2 3.8L109.65 3.8ZM122.79 0.39L122.79 -0.79L129.23 -0.79L129.23 0.39L126.68 0.39L126.68 8.7L129.23 8.7L129.23 9.87L122.79 9.87L122.79 8.7L125.29 8.7L125.29 0.39L122.79 0.39ZM148.47 -0.79L148.47 9.87L147.09 9.87L142.96 1.91L142.93 9.87L141.56 9.87L141.56 -0.79L142.94 -0.79L147.08 7.16L147.1 -0.79L148.47 -0.79ZM10.17 0.32L10.17 4.41L11.99 4.41Q12.44 4.4 12.84 4.27Q13.22 4.14 13.51 3.91Q13.53 3.89 13.55 3.88Q13.64 3.8 13.72 3.72Q13.91 3.51 14.03 3.25Q14.21 2.88 14.21 2.4Q14.21 1.88 14.04 1.5Q13.91 1.21 13.71 0.99Q13.64 0.92 13.57 0.85Q13.27 0.6 12.85 0.46Q12.44 0.33 11.95 0.32L10.17 0.32ZM39.6 0.32L38.51 0.32L38.51 8.77L39.6 8.77Q40.19 8.76 40.67 8.62Q41.15 8.48 41.52 8.23Q41.68 8.12 41.82 8Q42.03 7.81 42.21 7.58Q42.5 7.19 42.67 6.72Q42.81 6.33 42.89 5.88Q42.96 5.43 42.97 4.94L42.97 4.14Q42.96 3.64 42.88 3.18Q42.81 2.73 42.65 2.33Q42.48 1.9 42.22 1.53Q42.17 1.47 42.12 1.4Q42.01 1.27 41.89 1.16Q41.63 0.91 41.3 0.73Q40.96 0.54 40.53 0.44Q40.11 0.33 39.6 0.32ZM96.61 0.32L95.52 0.32L95.52 8.77L96.61 8.77Q97.2 8.76 97.68 8.62Q98.16 8.48 98.53 8.23Q98.69 8.12 98.83 8Q99.04 7.81 99.22 7.58Q99.51 7.19 99.67 6.72Q99.82 6.33 99.89 5.88Q99.97 5.43 99.98 4.94L99.98 4.14Q99.97 3.64 99.89 3.18Q99.81 2.73 99.66 2.33Q99.49 1.9 99.23 1.53Q99.18 1.47 99.13 1.4Q99.02 1.27 98.9 1.16Q98.64 0.91 98.31 0.73Q97.97 0.54 97.54 0.44Q97.12 0.33 96.61 0.32ZM0.62 0.37L0.62 3.76L2.51 3.76Q2.67 3.76 2.82 3.73Q3.04 3.7 3.25 3.64Q3.61 3.53 3.9 3.31Q3.9 3.31 3.91 3.31Q4.03 3.21 4.13 3.11Q4.27 2.96 4.37 2.78Q4.54 2.46 4.54 2.05Q4.54 1.6 4.37 1.28Q4.27 1.09 4.12 0.94Q4.03 0.84 3.91 0.76Q3.62 0.57 3.24 0.47Q3.17 0.45 3.11 0.44Q2.79 0.37 2.47 0.37L0.62 0.37ZM21.6 1.31L20.17 5.93L23 5.93L21.6 1.31ZM2.78 4.89L0.62 4.89L0.62 8.72L2.7 8.72Q3.11 8.72 3.48 8.59Q3.5 8.59 3.51 8.58Q3.89 8.45 4.18 8.2Q4.28 8.12 4.37 8.03Q4.53 7.85 4.65 7.61Q4.82 7.26 4.82 6.81Q4.83 6.36 4.67 6.01Q4.56 5.77 4.4 5.58Q4.32 5.49 4.24 5.41L4.23 5.41Q3.96 5.17 3.58 5.03Q3.21 4.9 2.78 4.89ZM78.72 8.27L78.72 9.56Q78.72 10.29 78.37 11.05Q78.07 11.71 77.6 12.19Q77.52 12.26 77.44 12.34L76.6 11.87Q76.89 11.45 77.04 10.98Q77.07 10.88 77.1 10.78Q77.24 10.2 77.24 9.58L77.24 8.27L78.72 8.27Z" fill="#191919" fill-opacity="1.000000" fill-rule="evenodd"/>
</svg>
