<svg width="86.000000" height="29.000000" viewBox="0 0 86 29" fill="none" xmlns="http://www.w3.org/2000/svg" xmlns:xlink="http://www.w3.org/1999/xlink">
	<desc>
			Created with Pixso.
	</desc>
	<defs/>
	<path id="Label" d="M76.67 15.39L76.69 18.78Q76.47 19.04 76.23 19.24Q75.99 19.45 75.73 19.6Q75.63 19.66 75.52 19.72Q75.17 19.9 74.77 20Q74.26 20.13 73.69 20.12Q73.12 20.12 72.64 19.95Q72.19 19.79 71.82 19.51Q71.8 19.5 71.78 19.48Q71.69 19.41 71.61 19.34Q71.33 19.1 71.11 18.79Q70.83 18.39 70.64 17.92Q70.44 17.46 70.34 16.95Q70.3 16.69 70.27 16.44Q70.24 16.18 70.24 15.91L70.24 14.84Q70.24 14.75 70.24 14.66Q70.26 14.24 70.33 13.82Q70.42 13.3 70.59 12.83Q70.77 12.37 71.04 11.96Q71.2 11.72 71.39 11.52Q71.53 11.38 71.68 11.26Q72.05 10.97 72.52 10.8Q72.99 10.63 73.57 10.63Q74.22 10.63 74.76 10.83Q75.25 11 75.63 11.32Q75.67 11.35 75.72 11.39Q75.79 11.46 75.86 11.53Q76.17 11.86 76.37 12.29Q76.62 12.82 76.68 13.46L75.51 13.46Q75.44 13.06 75.3 12.72Q75.15 12.38 74.92 12.14Q74.87 12.09 74.82 12.05Q74.61 11.87 74.35 11.77Q74.02 11.63 73.58 11.63Q73.16 11.63 72.83 11.77Q72.59 11.88 72.39 12.05Q72.33 12.1 72.27 12.16Q72.26 12.17 72.24 12.18Q72.02 12.42 71.87 12.72Q71.71 13.04 71.61 13.39Q71.57 13.53 71.54 13.66Q71.49 13.89 71.46 14.12Q71.42 14.49 71.42 14.83L71.42 15.91Q71.43 16.26 71.48 16.63Q71.52 16.89 71.58 17.13Q71.61 17.25 71.65 17.36Q71.76 17.72 71.94 18.03Q72.1 18.32 72.33 18.55Q72.35 18.57 72.37 18.59Q72.42 18.64 72.47 18.68Q72.69 18.86 72.95 18.98Q73.28 19.12 73.7 19.13Q73.94 19.13 74.2 19.11Q74.47 19.08 74.71 19Q74.95 18.93 75.16 18.81Q75.17 18.8 75.18 18.8Q75.27 18.74 75.35 18.67Q75.46 18.58 75.54 18.46L75.55 16.38L73.67 16.38L73.67 15.39L76.67 15.39ZM12.04 20L9.09 20L9.09 10.75L11.84 10.75Q12.24 10.76 12.63 10.83Q12.79 10.86 12.95 10.9Q13.5 11.04 13.92 11.34Q14.1 11.47 14.25 11.62Q14.46 11.84 14.6 12.1Q14.86 12.57 14.85 13.22Q14.84 13.58 14.73 13.88Q14.62 14.17 14.44 14.4Q14.44 14.4 14.43 14.41Q14.23 14.65 14 14.82Q13.76 14.98 13.42 15.13L13.42 15.15Q13.77 15.23 14.1 15.44Q14.42 15.66 14.63 15.92Q14.66 15.96 14.69 16Q14.87 16.25 14.97 16.56Q15.1 16.92 15.1 17.33Q15.1 17.98 14.85 18.47Q14.68 18.81 14.43 19.06Q14.31 19.19 14.17 19.3Q13.75 19.63 13.19 19.81Q12.99 19.88 12.78 19.92Q12.42 19.99 12.04 20ZM22.78 20L20.96 16.22L19.11 16.22L19.11 20L17.95 20L17.95 10.75L20.66 10.75Q21.3 10.77 21.87 10.94Q22.45 11.11 22.88 11.45Q22.99 11.54 23.09 11.65Q23.37 11.93 23.55 12.31Q23.79 12.83 23.79 13.53Q23.79 13.98 23.66 14.35Q23.54 14.7 23.34 14.98Q23.32 15.01 23.3 15.03Q23.29 15.05 23.27 15.08Q23.05 15.35 22.76 15.57Q22.44 15.81 22.06 15.97L24.02 19.92L24.01 20L22.78 20ZM31.84 20L31.11 17.6L28.03 17.6L27.29 20L26.11 20L29.1 10.75L30.08 10.75L33.01 20L31.84 20ZM41.29 10.75L41.29 20L40.1 20L36.51 13.09L36.49 20L35.31 20L35.31 10.75L36.5 10.75L40.09 17.65L40.11 10.75L41.29 10.75ZM46.32 20L44.18 20L44.18 10.75L46.32 10.75Q46.86 10.76 47.34 10.86Q47.82 10.97 48.23 11.16Q48.64 11.35 48.98 11.62Q49.11 11.73 49.23 11.84Q49.42 12.03 49.58 12.24Q49.78 12.51 49.92 12.82Q50.16 13.29 50.28 13.84Q50.4 14.4 50.41 15.04L50.41 15.72Q50.41 16.33 50.29 16.87Q50.18 17.42 49.95 17.87Q49.8 18.19 49.6 18.46Q49.5 18.61 49.38 18.74Q49.11 19.04 48.78 19.27Q48.69 19.34 48.6 19.4Q48.14 19.68 47.56 19.84Q46.99 19.99 46.32 20ZM53.11 11.77L53.11 10.75L58.69 10.75L58.69 11.77L56.48 11.77L56.48 18.98L58.69 18.98L58.69 20L53.11 20L53.11 18.98L55.27 18.98L55.27 11.77L53.11 11.77ZM67.7 10.75L67.7 20L66.5 20L62.92 13.09L62.9 20L61.71 20L61.71 10.75L62.9 10.75L66.49 17.65L66.51 10.75L67.7 10.75ZM19.11 11.72L19.11 15.26L20.69 15.26Q21.08 15.25 21.43 15.14Q21.75 15.03 22.01 14.83Q22.03 14.81 22.05 14.8Q22.12 14.73 22.19 14.66Q22.35 14.48 22.46 14.25Q22.61 13.93 22.61 13.51Q22.61 13.07 22.46 12.74Q22.35 12.48 22.18 12.29Q22.12 12.23 22.06 12.17Q21.8 11.95 21.44 11.84Q21.08 11.72 20.66 11.72L19.11 11.72ZM46.32 11.72L45.38 11.72L45.38 19.04L46.32 19.04Q46.83 19.03 47.25 18.91Q47.66 18.79 47.99 18.57Q48.12 18.48 48.24 18.37Q48.43 18.21 48.58 18.01Q48.83 17.67 48.98 17.26Q49.1 16.92 49.17 16.53Q49.23 16.14 49.24 15.72L49.24 15.02Q49.23 14.59 49.16 14.2Q49.1 13.8 48.96 13.46Q48.82 13.08 48.59 12.76Q48.55 12.71 48.5 12.65Q48.41 12.54 48.31 12.44Q48.08 12.22 47.8 12.07Q47.5 11.91 47.13 11.82Q46.76 11.72 46.32 11.72ZM10.27 11.76L10.27 14.69L11.91 14.69Q12.04 14.69 12.18 14.67Q12.37 14.65 12.55 14.59Q12.86 14.49 13.11 14.31Q13.11 14.3 13.12 14.3Q13.22 14.22 13.31 14.13Q13.43 14 13.52 13.84Q13.67 13.57 13.67 13.21Q13.67 12.82 13.52 12.55Q13.43 12.38 13.3 12.25Q13.22 12.17 13.12 12.1Q12.87 11.93 12.54 11.84Q12.48 11.83 12.42 11.82Q12.15 11.76 11.87 11.76L10.27 11.76ZM29.58 12.57L28.35 16.58L30.8 16.58L29.58 12.57ZM12.14 15.67L10.27 15.67L10.27 19L12.08 19Q12.43 18.99 12.75 18.88Q12.76 18.88 12.77 18.87Q13.1 18.76 13.36 18.55Q13.44 18.48 13.52 18.4Q13.66 18.24 13.76 18.03Q13.91 17.73 13.91 17.34Q13.92 16.95 13.78 16.64Q13.69 16.44 13.55 16.27Q13.48 16.19 13.4 16.12L13.4 16.12Q13.16 15.91 12.84 15.8Q12.51 15.68 12.14 15.67Z" fill="#191919" fill-opacity="1.000000" fill-rule="evenodd"/>
	<rect id="Label" rx="5.500000" width="85.000000" height="28.000000" transform="translate(0.500000 0.500000)" stroke="#191919" stroke-opacity="1.000000" stroke-width="1.000000"/>
</svg>
