<svg width="68.000000" height="29.000000" viewBox="0 0 68 29" fill="none" xmlns="http://www.w3.org/2000/svg" xmlns:xlink="http://www.w3.org/1999/xlink">
	<desc>
			Created with Pixso.
	</desc>
	<defs/>
	<path id="Label" d="M31.37 18.32Q31.54 18.04 31.54 17.66Q31.54 17.23 31.35 16.94Q31.3 16.88 31.26 16.82Q31.08 16.61 30.85 16.45Q30.54 16.25 30.18 16.12Q29.81 15.98 29.48 15.88Q28.99 15.72 28.48 15.49Q27.98 15.27 27.57 14.95Q27.27 14.72 27.05 14.43Q26.96 14.31 26.88 14.18Q26.88 14.18 26.88 14.18Q26.62 13.74 26.62 13.15Q26.62 12.62 26.83 12.19Q26.85 12.13 26.88 12.08Q27.03 11.82 27.22 11.61Q27.38 11.43 27.57 11.29Q27.59 11.27 27.61 11.26Q28.02 10.95 28.54 10.79Q29.01 10.65 29.49 10.63Q29.56 10.63 29.62 10.63Q30.01 10.63 30.37 10.71Q30.58 10.75 30.78 10.83Q31.29 11.01 31.7 11.32Q31.74 11.36 31.77 11.39Q31.93 11.52 32.06 11.67Q32.3 11.93 32.47 12.26Q32.47 12.28 32.48 12.3Q32.73 12.8 32.74 13.41L31.53 13.41Q31.48 13.01 31.34 12.69Q31.2 12.38 30.99 12.16Q30.97 12.14 30.95 12.12Q30.92 12.09 30.89 12.07Q30.67 11.87 30.37 11.76Q30.04 11.63 29.62 11.63Q29.43 11.63 29.24 11.66Q29.1 11.68 28.97 11.72Q28.65 11.82 28.4 12.01L28.4 12.01Q28.27 12.11 28.16 12.23Q28.07 12.34 27.99 12.48Q27.84 12.76 27.84 13.13Q27.85 13.5 28.02 13.77Q28.04 13.79 28.05 13.8Q28.07 13.84 28.1 13.87Q28.28 14.1 28.55 14.27Q28.85 14.46 29.2 14.59Q29.55 14.71 29.86 14.81Q30.38 14.97 30.89 15.19Q31.29 15.37 31.63 15.61Q31.73 15.69 31.83 15.77Q32.01 15.91 32.16 16.07Q32.36 16.29 32.51 16.56Q32.76 17.03 32.76 17.65Q32.76 18.25 32.5 18.71Q32.5 18.72 32.49 18.73Q32.33 18.99 32.13 19.2Q31.97 19.37 31.77 19.5Q31.34 19.81 30.78 19.97Q30.23 20.12 29.68 20.12Q29.48 20.12 29.29 20.1Q28.83 20.06 28.38 19.9Q27.78 19.69 27.32 19.3Q27.3 19.28 27.27 19.26Q27.01 19.03 26.82 18.76Q26.7 18.6 26.61 18.41Q26.61 18.4 26.6 18.39Q26.37 17.92 26.35 17.33L27.55 17.33Q27.6 17.76 27.78 18.09Q27.92 18.36 28.13 18.56Q28.18 18.61 28.24 18.66Q28.29 18.7 28.34 18.73Q28.58 18.91 28.88 19.01Q29.25 19.13 29.68 19.13Q29.83 19.13 29.98 19.11Q30.17 19.09 30.36 19.04Q30.69 18.95 30.95 18.77Q31.05 18.7 31.14 18.62Q31.27 18.48 31.37 18.32ZM50.27 15.39L50.28 18.78Q50.07 19.04 49.83 19.24Q49.59 19.45 49.33 19.6Q49.22 19.66 49.12 19.72Q48.76 19.9 48.37 20Q47.85 20.13 47.29 20.12Q46.72 20.12 46.24 19.95Q45.78 19.79 45.42 19.51Q45.4 19.5 45.38 19.48Q45.29 19.41 45.21 19.34Q44.93 19.1 44.71 18.79Q44.43 18.39 44.23 17.92Q44.04 17.46 43.94 16.95Q43.89 16.69 43.87 16.44Q43.84 16.18 43.83 15.91L43.83 14.84Q43.84 14.75 43.84 14.66Q43.86 14.24 43.93 13.82Q44.01 13.3 44.19 12.83Q44.37 12.37 44.63 11.96Q44.79 11.72 44.99 11.52Q45.12 11.38 45.28 11.26Q45.64 10.97 46.11 10.8Q46.58 10.63 47.17 10.63Q47.81 10.63 48.36 10.83Q48.85 11 49.22 11.32Q49.27 11.35 49.31 11.39Q49.39 11.46 49.46 11.53Q49.76 11.86 49.97 12.29Q50.21 12.82 50.27 13.46L49.11 13.46Q49.04 13.06 48.89 12.72Q48.75 12.38 48.51 12.14Q48.46 12.09 48.41 12.05Q48.2 11.87 47.94 11.77Q47.61 11.63 47.17 11.63Q46.75 11.63 46.43 11.77Q46.18 11.88 45.98 12.05Q45.92 12.1 45.87 12.16Q45.85 12.17 45.84 12.18Q45.62 12.42 45.47 12.72Q45.31 13.04 45.21 13.39Q45.17 13.53 45.14 13.66Q45.09 13.89 45.06 14.12Q45.02 14.49 45.02 14.83L45.02 15.91Q45.02 16.26 45.08 16.63Q45.11 16.89 45.18 17.13Q45.21 17.25 45.24 17.36Q45.36 17.72 45.54 18.03Q45.7 18.32 45.93 18.55Q45.95 18.57 45.97 18.59Q46.02 18.64 46.07 18.68Q46.28 18.86 46.55 18.98Q46.88 19.12 47.29 19.13Q47.54 19.13 47.8 19.11Q48.06 19.08 48.31 19Q48.55 18.93 48.75 18.81Q48.76 18.8 48.77 18.8Q48.87 18.74 48.94 18.67Q49.05 18.58 49.14 18.46L49.15 16.38L47.27 16.38L47.27 15.39L50.27 15.39ZM11.12 20L8.98 20L8.98 10.75L11.12 10.75Q11.66 10.76 12.14 10.86Q12.62 10.97 13.02 11.16Q13.43 11.35 13.78 11.62Q13.9 11.73 14.02 11.84Q14.21 12.03 14.37 12.24Q14.57 12.51 14.72 12.82Q14.95 13.29 15.08 13.84Q15.2 14.4 15.21 15.04L15.21 15.72Q15.21 16.33 15.09 16.87Q14.97 17.42 14.75 17.87Q14.6 18.19 14.4 18.46Q14.29 18.61 14.17 18.74Q13.9 19.04 13.58 19.27Q13.49 19.34 13.39 19.4Q12.93 19.68 12.36 19.84Q11.78 19.99 11.12 20ZM22.99 14.73L22.99 15.72L19.13 15.72L19.13 19L23.63 19L23.63 20L17.95 20L17.95 10.75L23.57 10.75L23.57 11.76L19.13 11.76L19.13 14.73L22.99 14.73ZM35.5 11.77L35.5 10.75L41.09 10.75L41.09 11.77L38.87 11.77L38.87 18.98L41.09 18.98L41.09 20L35.5 20L35.5 18.98L37.67 18.98L37.67 11.77L35.5 11.77ZM58.89 10.75L58.89 20L57.7 20L54.12 13.09L54.1 20L52.91 20L52.91 10.75L54.1 10.75L57.69 17.65L57.71 10.75L58.89 10.75ZM11.12 11.72L10.17 11.72L10.17 19.04L11.12 19.04Q11.63 19.03 12.04 18.91Q12.46 18.79 12.78 18.57Q12.92 18.48 13.04 18.37Q13.22 18.21 13.37 18.01Q13.63 17.67 13.77 17.26Q13.9 16.92 13.96 16.53Q14.03 16.14 14.03 15.72L14.03 15.02Q14.03 14.59 13.96 14.2Q13.89 13.8 13.76 13.46Q13.61 13.08 13.38 12.76Q13.34 12.71 13.3 12.65Q13.21 12.54 13.1 12.44Q12.88 12.22 12.59 12.07Q12.29 11.91 11.92 11.82Q11.56 11.72 11.12 11.72Z" fill="#191919" fill-opacity="1.000000" fill-rule="evenodd"/>
	<rect id="Label" rx="5.500000" width="67.000000" height="28.000000" transform="translate(0.500000 0.500000)" stroke="#191919" stroke-opacity="1.000000" stroke-width="1.000000"/>
</svg>
