<svg width="100.000000" height="100.000000" viewBox="0 0 100 100" fill="none" xmlns="http://www.w3.org/2000/svg" xmlns:xlink="http://www.w3.org/1999/xlink">
	<desc>
			Created with Pixso.
	</desc>
	<defs/>
	<path id="Vector" d="M99.53 48.92C96.31 48.92 93.12 48.62 89.95 47.99C86.79 47.37 83.72 46.44 80.74 45.21C77.76 43.97 74.94 42.46 72.26 40.66C69.58 38.87 67.1 36.83 64.83 34.54C62.54 32.27 60.5 29.79 58.71 27.11C56.91 24.43 55.4 21.61 54.17 18.63C52.93 15.65 52.01 12.58 51.38 9.42C50.76 6.26 50.45 3.06 50.46 -0.16C50.46 -0.29 50.41 -0.4 50.32 -0.49C50.23 -0.58 50.12 -0.63 50 -0.63C49.87 -0.63 49.76 -0.58 49.67 -0.49C49.58 -0.4 49.53 -0.29 49.53 -0.16C49.54 3.06 49.23 6.26 48.61 9.42C47.99 12.58 47.06 15.65 45.82 18.63C44.59 21.61 43.08 24.43 41.28 27.11C39.49 29.79 37.45 32.27 35.16 34.54C32.89 36.83 30.41 38.87 27.73 40.66C25.05 42.46 22.23 43.97 19.25 45.21C16.27 46.44 13.2 47.37 10.04 47.99C6.87 48.62 3.68 48.92 0.46 48.92C0.33 48.92 0.22 48.96 0.13 49.05C0.04 49.14 0 49.25 0 49.37C0 49.5 0.04 49.61 0.13 49.7C0.22 49.79 0.33 49.84 0.46 49.84C3.68 49.83 6.87 50.14 10.04 50.76C13.2 51.39 16.27 52.31 19.25 53.55C22.23 54.78 25.05 56.3 27.73 58.09C30.41 59.89 32.89 61.92 35.16 64.21C37.45 66.48 39.49 68.96 41.28 71.64C43.08 74.32 44.59 77.15 45.82 80.12C47.06 83.1 47.99 86.17 48.61 89.34C49.23 92.5 49.54 95.69 49.53 98.92C49.53 99.04 49.58 99.15 49.67 99.24C49.76 99.33 49.87 99.37 50 99.37C50.12 99.37 50.23 99.33 50.32 99.24C50.41 99.15 50.46 99.04 50.46 98.92C50.46 71.85 72.47 49.84 99.53 49.84C99.66 49.84 99.77 49.79 99.86 49.7C99.95 49.61 100 49.5 100 49.37C100 49.25 99.95 49.14 99.86 49.05C99.77 48.96 99.66 48.92 99.53 48.92ZM50 92.1C49.63 89.41 49.05 86.77 48.26 84.18C47.46 81.59 46.46 79.08 45.26 76.66C44.05 74.23 42.65 71.92 41.07 69.72C39.48 67.52 37.73 65.47 35.81 63.56C33.9 61.64 31.85 59.89 29.65 58.3C27.46 56.72 25.15 55.32 22.72 54.12C20.3 52.91 17.79 51.91 15.2 51.12C12.61 50.32 9.98 49.74 7.29 49.37C9.98 49.01 12.61 48.43 15.2 47.64C17.79 46.84 20.3 45.84 22.72 44.64C25.15 43.43 27.46 42.03 29.65 40.45C31.85 38.86 33.9 37.11 35.81 35.19C37.73 33.28 39.48 31.23 41.07 29.03C42.65 26.84 44.05 24.53 45.25 22.1C46.46 19.68 47.46 17.17 48.26 14.58C49.05 11.99 49.63 9.36 50 6.68C50.36 9.36 50.94 11.99 51.73 14.58C52.53 17.17 53.53 19.68 54.74 22.1C55.94 24.53 57.34 26.84 58.92 29.03C60.51 31.23 62.26 33.28 64.18 35.19C66.09 37.11 68.14 38.87 70.34 40.45C72.54 42.04 74.85 43.43 77.28 44.64C79.7 45.84 82.21 46.84 84.8 47.64C87.39 48.43 90.03 49.01 92.71 49.37C70.59 52.41 53.03 69.97 50 92.1Z" fill="#191919" fill-opacity="1.000000" fill-rule="nonzero"/>
</svg>
