<svg width="72.000000" height="35.000000" viewBox="0 0 72 35" fill="none" xmlns="http://www.w3.org/2000/svg" xmlns:xlink="http://www.w3.org/1999/xlink">
	<desc>
			Created with Pixso.
	</desc>
	<defs/>
	<path id="Button" d="M23.95 11.71L23.95 22.37L22.57 22.37L18.43 14.41L18.41 22.37L17.04 22.37L17.04 11.71L18.42 11.71L22.56 19.66L22.58 11.71L23.95 11.71ZM33.14 16.3L33.14 17.45L28.68 17.45L28.68 21.23L33.88 21.23L33.88 22.37L27.33 22.37L27.33 11.71L33.81 11.71L33.81 12.87L28.68 12.87L28.68 16.3L33.14 16.3ZM38.31 11.71L40.58 15.89L42.88 11.71L44.47 11.71L41.37 17L44.55 22.37L42.96 22.37L40.6 18.11L38.24 22.37L36.64 22.37L39.81 17L36.72 11.71L38.31 11.71ZM54.47 11.71L54.47 12.87L51.17 12.87L51.17 22.37L49.85 22.37L49.85 12.87L46.56 12.87L46.56 11.71L54.47 11.71Z" fill="#191919" fill-opacity="1.000000" fill-rule="evenodd"/>
	<rect id="Button" rx="5.500000" width="71.000000" height="34.000000" transform="translate(0.500000 -0.120117)" stroke="#191919" stroke-opacity="1.000000" stroke-width="1.000000"/>
</svg>
