<svg width="112.000000" height="35.000000" viewBox="0 0 112 35" fill="none" xmlns="http://www.w3.org/2000/svg" xmlns:xlink="http://www.w3.org/1999/xlink">
	<desc>
			Created with Pixso.
	</desc>
	<defs/>
	<path id="Button" d="M74.21 16.44L74.21 17.66Q74.21 18.23 74.11 18.81Q74.02 19.39 73.83 19.94Q73.64 20.48 73.34 20.95Q73.11 21.32 72.8 21.62Q72.72 21.7 72.64 21.77Q72.6 21.8 72.57 21.83Q72.18 22.14 71.7 22.32Q71.17 22.52 70.51 22.52Q69.85 22.52 69.32 22.32Q68.83 22.14 68.45 21.83Q68.41 21.8 68.38 21.77Q68.34 21.73 68.3 21.7Q67.94 21.37 67.66 20.94L67.66 20.94Q67.36 20.47 67.17 19.93Q67.17 19.91 67.16 19.89Q66.97 19.37 66.88 18.81Q66.79 18.23 66.78 17.66L66.78 16.44Q66.79 15.87 66.88 15.29Q66.97 14.71 67.17 14.16Q67.36 13.62 67.65 13.15Q67.88 12.78 68.18 12.49Q68.27 12.4 68.36 12.32Q68.4 12.29 68.43 12.26Q68.82 11.95 69.3 11.77Q69.83 11.56 70.49 11.56Q71.15 11.56 71.69 11.77Q72.2 11.96 72.59 12.29Q72.61 12.3 72.63 12.32Q72.69 12.37 72.75 12.43Q73.08 12.74 73.34 13.14Q73.63 13.62 73.83 14.16Q74.02 14.7 74.11 15.29Q74.21 15.87 74.21 16.44ZM92.67 20.44Q92.86 20.12 92.86 19.68Q92.86 19.19 92.64 18.85Q92.59 18.78 92.53 18.71Q92.34 18.46 92.06 18.28Q91.71 18.05 91.29 17.9Q90.87 17.75 90.48 17.62Q89.92 17.44 89.33 17.18Q88.75 16.92 88.28 16.55Q87.93 16.29 87.68 15.95Q87.58 15.81 87.49 15.67Q87.49 15.67 87.48 15.66Q87.18 15.15 87.18 14.47Q87.18 13.86 87.42 13.37Q87.45 13.3 87.49 13.24Q87.65 12.95 87.88 12.7Q88.06 12.5 88.28 12.33Q88.31 12.31 88.33 12.29Q88.8 11.94 89.4 11.76Q89.94 11.59 90.49 11.57Q90.57 11.56 90.65 11.56Q91.09 11.56 91.52 11.66Q91.76 11.71 91.99 11.8Q92.58 12.01 93.04 12.37Q93.09 12.41 93.13 12.44Q93.31 12.59 93.46 12.77Q93.74 13.07 93.93 13.45Q93.94 13.47 93.95 13.49Q94.23 14.07 94.25 14.78L92.85 14.78Q92.79 14.32 92.63 13.94Q92.47 13.59 92.22 13.34Q92.2 13.31 92.18 13.29Q92.15 13.26 92.11 13.23Q91.85 13 91.52 12.87Q91.13 12.72 90.65 12.72Q90.43 12.72 90.21 12.76Q90.05 12.78 89.89 12.83Q89.52 12.94 89.24 13.16L89.24 13.16Q89.09 13.27 88.97 13.41Q88.85 13.55 88.77 13.7Q88.6 14.03 88.6 14.45Q88.6 14.88 88.8 15.19Q88.82 15.21 88.83 15.23Q88.86 15.27 88.89 15.31Q89.1 15.58 89.41 15.77Q89.76 15.99 90.16 16.13Q90.57 16.28 90.93 16.39Q91.52 16.57 92.11 16.83Q92.57 17.03 92.96 17.32Q93.08 17.4 93.2 17.5Q93.41 17.66 93.58 17.85Q93.81 18.1 93.98 18.41Q94.27 18.95 94.27 19.66Q94.27 20.36 93.97 20.89Q93.96 20.9 93.96 20.92Q93.78 21.22 93.54 21.46Q93.35 21.65 93.13 21.8Q92.63 22.16 91.99 22.34Q91.35 22.52 90.71 22.52Q90.49 22.52 90.27 22.5Q89.74 22.45 89.22 22.27Q88.52 22.02 87.99 21.57Q87.97 21.55 87.94 21.53Q87.64 21.27 87.42 20.95Q87.28 20.76 87.17 20.55Q87.17 20.54 87.16 20.53Q86.89 19.97 86.87 19.3L88.25 19.3Q88.32 19.8 88.52 20.18Q88.69 20.49 88.92 20.71Q88.99 20.77 89.05 20.83Q89.11 20.88 89.17 20.92Q89.45 21.12 89.8 21.24Q90.22 21.37 90.71 21.37Q90.89 21.37 91.06 21.35Q91.28 21.33 91.49 21.27Q91.88 21.17 92.18 20.96Q92.3 20.88 92.4 20.78Q92.55 20.63 92.67 20.44ZM20.85 18.1L18.75 18.1L18.75 22.37L17.39 22.37L17.39 11.71L20.85 11.71Q21.57 11.73 22.21 11.94Q22.84 12.15 23.32 12.55Q23.33 12.55 23.33 12.55Q23.46 12.66 23.58 12.78Q23.89 13.12 24.1 13.55Q24.38 14.14 24.38 14.91Q24.38 15.68 24.1 16.27Q23.9 16.69 23.6 17.01Q23.48 17.14 23.33 17.26Q23.33 17.27 23.32 17.27Q22.84 17.67 22.21 17.88Q21.57 18.09 20.85 18.1ZM32.9 22.37L30.8 18.02L28.67 18.02L28.67 22.37L27.32 22.37L27.32 11.71L30.45 11.71Q31.2 11.73 31.86 11.92Q32.52 12.12 33.01 12.52Q33.15 12.62 33.26 12.75Q33.58 13.07 33.79 13.51Q34.07 14.11 34.07 14.91Q34.07 15.43 33.92 15.86Q33.78 16.26 33.55 16.59Q33.53 16.62 33.5 16.65Q33.48 16.67 33.46 16.7Q33.21 17.02 32.87 17.27Q32.51 17.54 32.07 17.73L34.33 22.29L34.32 22.37L32.9 22.37ZM43.14 16.3L43.14 17.45L38.69 17.45L38.69 21.23L43.88 21.23L43.88 22.37L37.33 22.37L37.33 11.71L43.81 11.71L43.81 12.87L38.69 12.87L38.69 16.3L43.14 16.3ZM51.07 22.37L49.89 22.37L46.52 11.71L47.97 11.71L50.31 19.67L50.47 20.19L50.63 19.66L52.99 11.71L54.43 11.71L51.07 22.37ZM57.28 12.89L57.28 11.71L63.72 11.71L63.72 12.89L61.16 12.89L61.16 21.2L63.72 21.2L63.72 22.37L57.28 22.37L57.28 21.2L59.77 21.2L59.77 12.89L57.28 12.89ZM82.66 11.71L83.97 11.71L83.99 18.93Q83.99 19.61 83.77 20.21Q83.75 20.27 83.72 20.33Q83.5 20.89 83.13 21.32Q83.07 21.4 83 21.47Q82.87 21.61 82.72 21.73Q82.35 22.04 81.9 22.24L81.9 22.24Q81.26 22.52 80.5 22.52Q79.72 22.52 79.09 22.24Q78.62 22.04 78.25 21.72Q78.12 21.61 78 21.47Q77.95 21.43 77.91 21.38Q77.52 20.93 77.29 20.34Q77.27 20.3 77.26 20.26Q77.03 19.64 77.02 18.93L77.04 11.71L78.33 11.71L78.35 18.93Q78.36 19.33 78.46 19.7Q78.48 19.78 78.51 19.85Q78.65 20.28 78.92 20.62L78.92 20.62Q78.98 20.71 79.06 20.78Q79.28 21.01 79.58 21.17Q79.98 21.37 80.5 21.37Q81.02 21.37 81.42 21.17Q81.64 21.06 81.83 20.89Q81.97 20.77 82.08 20.62Q82.35 20.29 82.49 19.85Q82.5 19.82 82.51 19.78Q82.63 19.37 82.64 18.93L82.66 11.71ZM72.87 17.66L72.87 16.43Q72.87 16.05 72.82 15.63Q72.78 15.22 72.67 14.81Q72.56 14.41 72.39 14.04Q72.21 13.67 71.95 13.38Q71.87 13.3 71.79 13.23Q71.58 13.05 71.33 12.94Q70.97 12.77 70.49 12.77Q70.02 12.77 69.66 12.94Q69.4 13.07 69.18 13.25Q69.11 13.32 69.04 13.39Q68.78 13.67 68.6 14.04Q68.58 14.08 68.57 14.12Q68.42 14.46 68.32 14.82Q68.21 15.23 68.17 15.64Q68.12 16.05 68.11 16.43L68.11 17.66Q68.12 18.03 68.17 18.45Q68.2 18.77 68.28 19.08Q68.3 19.18 68.32 19.27Q68.43 19.68 68.61 20.05Q68.79 20.43 69.05 20.71Q69.15 20.81 69.26 20.9Q69.44 21.05 69.67 21.16Q70.03 21.33 70.51 21.33Q70.98 21.33 71.35 21.16Q71.59 21.04 71.8 20.87Q71.89 20.79 71.97 20.71Q72.23 20.43 72.4 20.06Q72.57 19.69 72.68 19.28Q72.69 19.23 72.71 19.18Q72.79 18.82 72.82 18.46Q72.87 18.04 72.87 17.66ZM18.75 12.82L18.75 16.98L20.85 16.98Q21.32 16.98 21.72 16.83Q22.08 16.7 22.36 16.47Q22.38 16.45 22.4 16.43Q22.48 16.36 22.55 16.28Q22.74 16.07 22.86 15.79Q23.03 15.41 23.03 14.93Q23.03 14.44 22.86 14.05Q22.71 13.7 22.47 13.45Q22.44 13.42 22.41 13.4Q22.38 13.37 22.35 13.34Q22.08 13.11 21.72 12.98Q21.32 12.83 20.85 12.82L18.75 12.82ZM28.67 12.82L28.67 16.91L30.49 16.91Q30.94 16.9 31.34 16.77Q31.72 16.64 32.01 16.41Q32.03 16.39 32.05 16.38Q32.14 16.3 32.22 16.22Q32.41 16.01 32.53 15.75Q32.71 15.38 32.71 14.9Q32.71 14.38 32.54 14Q32.41 13.71 32.21 13.49Q32.14 13.42 32.07 13.35Q31.77 13.1 31.35 12.96Q30.94 12.83 30.45 12.82L28.67 12.82Z" fill="#191919" fill-opacity="1.000000" fill-rule="evenodd"/>
	<rect id="Button" rx="5.500000" width="111.000000" height="34.000000" transform="translate(0.500000 -0.120117)" stroke="#191919" stroke-opacity="1.000000" stroke-width="1.000000"/>
</svg>
