<svg width="60.000000" height="29.000000" viewBox="0 0 60 29" fill="none" xmlns="http://www.w3.org/2000/svg" xmlns:xlink="http://www.w3.org/1999/xlink">
	<desc>
			Created with Pixso.
	</desc>
	<defs/>
	<path id="Label" d="M50.32 14.85L50.32 15.91Q50.31 16.4 50.23 16.91Q50.15 17.41 49.99 17.88Q49.82 18.35 49.56 18.76Q49.36 19.08 49.09 19.34Q49.02 19.41 48.95 19.47Q48.92 19.49 48.89 19.52Q48.56 19.79 48.14 19.95Q47.68 20.12 47.1 20.12Q46.53 20.12 46.07 19.95Q45.65 19.79 45.32 19.52Q45.29 19.49 45.26 19.47Q45.22 19.44 45.19 19.41Q44.88 19.12 44.64 18.75L44.64 18.75Q44.38 18.34 44.22 17.87Q44.21 17.86 44.2 17.84Q44.04 17.39 43.96 16.9Q43.88 16.4 43.87 15.91L43.87 14.85Q43.88 14.36 43.96 13.85Q44.04 13.35 44.21 12.88Q44.37 12.41 44.63 12Q44.83 11.68 45.09 11.43Q45.16 11.35 45.24 11.28Q45.27 11.25 45.31 11.23Q45.64 10.96 46.06 10.8Q46.52 10.63 47.09 10.63Q47.66 10.63 48.13 10.8Q48.57 10.97 48.91 11.25Q48.93 11.27 48.94 11.28Q49 11.32 49.05 11.37Q49.34 11.65 49.56 11.99Q49.81 12.4 49.99 12.87Q50.15 13.34 50.23 13.85Q50.31 14.36 50.32 14.85ZM12.39 20L11.37 20L8.45 10.75L9.7 10.75L11.73 17.65L11.87 18.1L12.01 17.64L14.05 10.75L15.3 10.75L12.39 20ZM17.9 11.77L17.9 10.75L23.49 10.75L23.49 11.77L21.27 11.77L21.27 18.98L23.49 18.98L23.49 20L17.9 20L17.9 18.98L20.07 18.98L20.07 11.77L17.9 11.77ZM28.72 20L26.58 20L26.58 10.75L28.72 10.75Q29.26 10.76 29.74 10.86Q30.22 10.97 30.62 11.16Q31.04 11.35 31.38 11.62Q31.51 11.73 31.62 11.84Q31.82 12.03 31.98 12.24Q32.17 12.51 32.32 12.82Q32.55 13.29 32.68 13.84Q32.8 14.4 32.81 15.04L32.81 15.72Q32.81 16.33 32.69 16.87Q32.57 17.42 32.35 17.87Q32.2 18.19 32 18.46Q31.89 18.61 31.77 18.74Q31.5 19.04 31.18 19.27Q31.09 19.34 30.99 19.4Q30.54 19.68 29.96 19.84Q29.39 19.99 28.72 20ZM40.59 14.73L40.59 15.72L36.73 15.72L36.73 19L41.23 19L41.23 20L35.55 20L35.55 10.75L41.17 10.75L41.17 11.76L36.73 11.76L36.73 14.73L40.59 14.73ZM49.15 15.91L49.15 14.84Q49.15 14.51 49.11 14.15Q49.07 13.79 48.98 13.44Q48.89 13.09 48.74 12.77Q48.58 12.45 48.35 12.2Q48.29 12.13 48.21 12.07Q48.03 11.92 47.81 11.82Q47.5 11.67 47.09 11.67Q46.68 11.67 46.37 11.82Q46.14 11.93 45.96 12.09Q45.89 12.14 45.83 12.21Q45.61 12.45 45.45 12.77Q45.44 12.81 45.42 12.84Q45.29 13.13 45.21 13.44Q45.12 13.8 45.08 14.16Q45.03 14.52 45.03 14.84L45.03 15.91Q45.03 16.23 45.08 16.59Q45.11 16.87 45.17 17.14Q45.19 17.22 45.21 17.3Q45.31 17.66 45.46 17.98Q45.61 18.31 45.84 18.55Q45.92 18.64 46.02 18.72Q46.18 18.85 46.38 18.94Q46.69 19.09 47.1 19.09Q47.52 19.09 47.83 18.94Q48.05 18.84 48.22 18.69Q48.3 18.63 48.37 18.55Q48.6 18.31 48.74 17.99Q48.89 17.67 48.99 17.31Q49 17.27 49.01 17.23Q49.08 16.92 49.11 16.6Q49.15 16.24 49.15 15.91ZM28.72 11.72L27.77 11.72L27.77 19.04L28.72 19.04Q29.23 19.03 29.64 18.91Q30.06 18.79 30.38 18.57Q30.52 18.48 30.64 18.37Q30.82 18.21 30.98 18.01Q31.23 17.67 31.37 17.26Q31.5 16.92 31.56 16.53Q31.63 16.14 31.63 15.72L31.63 15.02Q31.63 14.59 31.56 14.2Q31.49 13.8 31.36 13.46Q31.22 13.08 30.99 12.76Q30.94 12.71 30.9 12.65Q30.81 12.54 30.7 12.44Q30.48 12.22 30.19 12.07Q29.89 11.91 29.53 11.82Q29.16 11.72 28.72 11.72Z" fill="#191919" fill-opacity="1.000000" fill-rule="evenodd"/>
	<rect id="Label" rx="5.500000" width="59.000000" height="28.000000" transform="translate(0.500000 0.500000)" stroke="#191919" stroke-opacity="1.000000" stroke-width="1.000000"/>
</svg>
