<svg width="34.000000" height="34.000000" viewBox="0 0 34 34" fill="none" xmlns="http://www.w3.org/2000/svg" xmlns:xlink="http://www.w3.org/1999/xlink">
	<desc>
			Created with Pixso.
	</desc>
	<defs/>
	<path id="LN" d="M14.74 16.8L14.74 17.79L10.89 17.79L10.89 21.87L9.71 21.87L9.71 12.63L15.38 12.63L15.38 13.64L10.89 13.64L10.89 16.8L14.74 16.8ZM21.35 21.87L18.39 21.87L18.39 12.63L21.14 12.63C21.52 12.64 21.89 12.69 22.25 12.78C22.62 12.88 22.94 13.02 23.23 13.22C23.51 13.42 23.73 13.68 23.9 13.98C24.07 14.29 24.16 14.66 24.15 15.1C24.15 15.34 24.11 15.56 24.03 15.76C23.96 15.95 23.86 16.13 23.73 16.29C23.6 16.45 23.46 16.59 23.3 16.7C23.14 16.81 22.95 16.91 22.72 17.01L22.72 17.03C22.96 17.08 23.18 17.18 23.4 17.32Q23.72 17.54 23.93 17.8C24.08 17.99 24.19 18.2 24.28 18.44C24.36 18.68 24.4 18.93 24.4 19.21Q24.41 19.86 24.15 20.35C23.98 20.68 23.76 20.96 23.47 21.18Q23.05 21.51 22.49 21.69C22.12 21.81 21.74 21.87 21.35 21.87ZM19.57 13.64L19.57 16.57L21.21 16.57Q21.34 16.57 21.48 16.55Q21.67 16.53 21.85 16.47C22.07 16.4 22.25 16.31 22.42 16.18Q22.52 16.1 22.61 16.01Q22.73 15.88 22.82 15.72Q22.97 15.45 22.97 15.09C22.97 14.83 22.92 14.61 22.82 14.43C22.72 14.25 22.59 14.1 22.43 13.98C22.26 13.86 22.06 13.78 21.84 13.72C21.63 13.67 21.4 13.64 21.17 13.64L19.57 13.64ZM21.44 17.55L19.57 17.55L19.57 20.88L21.38 20.88C21.62 20.87 21.86 20.83 22.08 20.75C22.3 20.68 22.49 20.57 22.66 20.43C22.83 20.29 22.96 20.12 23.06 19.91C23.16 19.71 23.21 19.48 23.21 19.22C23.22 18.96 23.17 18.73 23.08 18.52C22.99 18.32 22.87 18.15 22.7 18C22.54 17.86 22.36 17.76 22.14 17.68C21.92 17.6 21.69 17.56 21.44 17.55Z" fill="#191919" fill-opacity="1.000000" fill-rule="evenodd"/>
	<rect id="Badge" rx="16.500000" width="33.000000" height="33.000000" transform="translate(0.500000 -0.120117)" stroke="#191919" stroke-opacity="1.000000" stroke-width="1.000000"/>
</svg>
